<?xml version="1.0" standalone="no"?><!DOCTYPE svg PUBLIC "-//W3C//DTD SVG 1.1//EN" "http://www.w3.org/Graphics/SVG/1.1/DTD/svg11.dtd"><svg t="1762833687895" class="icon" viewBox="0 0 1024 1024" version="1.1" xmlns="http://www.w3.org/2000/svg" p-id="6227" xmlns:xlink="http://www.w3.org/1999/xlink" width="200" height="200"><path d="M978.488889 477.866667h-56.888889V415.288889c0-22.755556-17.066667-39.822222-39.822222-39.822222H568.888889c-5.688889-17.066667-17.066667-34.133333-39.822222-39.822223V284.444444h79.644444c22.755556 0 39.822222-17.066667 39.822222-39.822222V39.822222c0-22.755556-17.066667-39.822222-39.822222-39.822222H409.6c-22.755556 0-39.822222 17.066667-39.822222 39.822222v204.8c0 22.755556 17.066667 39.822222 39.822222 39.822222h79.644444v51.2c-17.066667 5.688889-34.133333 22.755556-39.822222 39.822223H136.533333c-22.755556 0-39.822222 17.066667-39.822222 39.822222v62.577778h-56.888889c-22.755556 0-39.822222 17.066667-39.822222 39.822222v119.466667c0 22.755556 17.066667 45.511111 39.822222 45.511111h125.155556c22.755556 0 39.822222-17.066667 39.822222-39.822223V517.688889c0-22.755556-17.066667-39.822222-39.822222-39.822222h-28.444445V415.288889H455.111111c5.688889 17.066667 22.755556 28.444444 34.133333 34.133333v28.444445h-39.822222c-22.755556 0-39.822222 17.066667-39.822222 39.822222v119.466667c0 22.755556 17.066667 39.822222 39.822222 39.822222h125.155556c22.755556 0 39.822222-17.066667 39.822222-39.822222V517.688889c0-22.755556-17.066667-39.822222-39.822222-39.822222h-45.511111v-28.444445c17.066667-5.688889 28.444444-17.066667 39.822222-34.133333h318.577778v62.577778h-28.444445c-22.755556 0-39.822222 17.066667-39.822222 39.822222v119.466667c0 22.755556 17.066667 39.822222 39.822222 39.822222h39.822222v45.511111H529.066667c-22.755556 0-39.822222 17.066667-39.822223 39.822222v51.2h-39.822222c-22.755556 0-39.822222 17.066667-39.822222 39.822222v119.466667c0 22.755556 17.066667 39.822222 39.822222 39.822222h125.155556c22.755556 0 39.822222-17.066667 39.822222-39.822222V853.333333c0-22.755556-17.066667-39.822222-39.822222-39.822222h-45.511111v-51.2h369.777777c22.755556 0 39.822222-17.066667 45.511112-39.822222V682.666667h39.822222c22.755556 0 39.822222-17.066667 39.822222-39.822223V517.688889c0-22.755556-17.066667-39.822222-45.511111-39.822222zM512 415.288889c-11.377778 0-22.755556-5.688889-22.755556-22.755556 0-11.377778 5.688889-22.755556 22.755556-22.755555 11.377778 0 22.755556 5.688889 22.755556 22.755555-5.688889 11.377778-11.377778 22.755556-22.755556 22.755556z" fill="#0091ff" p-id="6228"></path></svg>