<?xml version="1.0" standalone="no"?><!DOCTYPE svg PUBLIC "-//W3C//DTD SVG 1.1//EN" "http://www.w3.org/Graphics/SVG/1.1/DTD/svg11.dtd"><svg t="1762343135509" class="icon" viewBox="0 0 1024 1024" version="1.1" xmlns="http://www.w3.org/2000/svg" p-id="5719" xmlns:xlink="http://www.w3.org/1999/xlink" width="200" height="200"><path d="M270.4 224c-122.24 4.16-247.36 118.4-166.72 455.36 120.32-59.84 270.08-51.84 312.32-48A356.48 356.48 0 0 0 461.12 448c-16.64-178.88-115.84-228.48-190.72-224z m137.28 528c-56.64-5.76-192-5.12-277.76 51.52 2.56 16.64 5.76 36.8 9.6 64A138.88 138.88 0 0 0 304 992c109.76-11.84 133.76-69.44 121.28-152.96a469.12 469.12 0 0 1-17.6-88z m250.88-192a469.44 469.44 0 0 1-18.56 87.36c-12.48 83.2 11.84 141.12 121.28 152.96A138.88 138.88 0 0 0 928 675.2c3.84-26.24 7.04-46.72 9.6-64-85.44-56.32-222.4-56.96-278.72-50.88zM796.16 32c-74.88-3.2-174.08 46.08-192 224a356.48 356.48 0 0 0 45.12 184c42.24-3.84 192-11.52 312.32 48.32C1042.56 155.84 919.04 37.44 796.16 32z" fill="#0091ff" p-id="5720"></path></svg>