<?xml version="1.0" standalone="no"?><!DOCTYPE svg PUBLIC "-//W3C//DTD SVG 1.1//EN" "http://www.w3.org/Graphics/SVG/1.1/DTD/svg11.dtd"><svg t="1762182712919" class="icon" viewBox="0 0 1024 1024" version="1.1" xmlns="http://www.w3.org/2000/svg" p-id="1424" xmlns:xlink="http://www.w3.org/1999/xlink" width="200" height="200"><path d="M512 944C273.92 944 80 750.08 80 512S273.92 80 512 80 944 273.92 944 512 750.08 944 512 944z m0-768C326.72 176 176 326.72 176 512S326.72 848 512 848 848 697.28 848 512 697.28 176 512 176z" p-id="1425" fill="#d81e06"></path><path d="M384 384m53.44 0l149.12 0q53.44 0 53.44 53.44l0 149.12q0 53.44-53.44 53.44l-149.12 0q-53.44 0-53.44-53.44l0-149.12q0-53.44 53.44-53.44Z" p-id="1426" fill="#d81e06"></path></svg>